<svg width="400" height="294" viewBox="0 0 400 294" fill="none" xmlns="http://www.w3.org/2000/svg">
<path d="M318.86 144.853C323.516 126.721 323.982 110.863 323.999 110.197C324.029 109.063 323.374 108.023 322.339 107.56C301.775 98.3652 280.696 95.1514 259.69 98.011C244.581 100.068 229.892 105.159 216.032 113.145C206.452 118.666 194.548 118.665 184.968 113.145C171.108 105.159 156.419 100.068 141.31 98.011C120.302 95.1525 99.226 98.3652 78.661 107.56C77.6258 108.023 76.9707 109.063 77.001 110.197C77.0184 110.863 77.4838 126.721 82.1403 144.853C86.7541 162.821 93.6544 176.26 102.723 185.01L93.2042 196.365C92.6771 196.995 92.4514 197.823 92.5873 198.633C92.7231 199.443 93.207 200.153 93.911 200.575C97.008 202.433 100.427 203.338 103.816 203.338C108.902 203.338 113.917 201.298 117.66 197.38L119.606 195.346C133.578 200.567 146.872 199.762 159.198 192.922C173.37 185.058 182.162 171.198 186.143 163.637C188.869 158.456 191.498 153.294 193.956 148.296C195.211 145.745 197.657 144.222 200.499 144.222C203.342 144.222 205.788 145.745 207.042 148.295C209.502 153.298 212.131 158.459 214.856 163.636C218.836 171.198 227.629 185.058 241.801 192.921C248.791 196.8 256.093 198.739 263.653 198.739C269.423 198.739 275.345 197.605 281.394 195.345L283.338 197.379C287.083 201.298 292.098 203.338 297.184 203.338C300.572 203.338 303.992 202.433 307.088 200.574C307.793 200.152 308.276 199.442 308.412 198.633C308.548 197.823 308.323 196.994 307.795 196.365L298.276 185.009C307.345 176.26 314.245 162.82 318.86 144.853ZM310.84 132.853C310.152 130.736 309.353 128.779 308.502 126.982C312.111 130.438 314.351 133.549 315.31 134.999C314.693 138.124 313.953 141.393 313.068 144.718C312.854 140.868 312.155 136.902 310.84 132.853ZM87.9381 144.704C87.0534 141.38 86.314 138.113 85.6965 134.989C86.6587 133.534 88.8963 130.431 92.4963 126.984C91.6459 128.779 90.8465 130.736 90.1588 132.853C88.8458 136.898 88.1531 140.859 87.9381 144.704ZM113.603 193.501C109.987 197.287 104.695 198.594 99.885 197.133L106.99 188.658C109.2 190.323 111.519 191.749 113.951 192.925C113.997 192.947 114.044 192.968 114.09 192.99L113.603 193.501ZM137.283 193.077C130.978 193.077 124.011 191.552 116.394 187.87C115.683 187.527 114.987 187.16 114.305 186.77C109.039 183.761 104.764 179.298 101.628 174.106C93.495 160.644 91.4045 147.455 95.4216 134.826C98.4603 125.275 104.17 119.178 105.472 117.876C122.967 109.245 144.017 110.962 168.06 123.002C177.811 127.886 182.92 138.688 180.484 149.272C177.793 160.96 171.265 177.214 155.471 188.514C150.178 191.287 144.117 193.079 137.283 193.077ZM212.08 145.818C209.893 141.371 205.456 138.608 200.501 138.608H200.5C195.544 138.608 191.107 141.371 188.92 145.818C187.772 148.152 186.583 150.524 185.368 152.915C185.58 152.104 185.776 151.307 185.955 150.531C188.974 137.414 182.649 124.03 170.575 117.983C152.503 108.933 125.885 100.806 101.711 113.483C93.5034 117.786 87.8196 123.318 84.3728 127.412C83.2973 120.347 82.865 114.695 82.7028 111.917C101.74 103.745 121.191 100.939 140.552 103.572C154.937 105.53 168.938 110.387 182.165 118.008C193.473 124.524 207.525 124.525 218.835 118.008C232.062 110.387 246.062 105.53 260.448 103.572C279.808 100.937 299.261 103.745 318.298 111.917C318.137 114.696 317.707 120.35 316.633 127.418C313.187 123.324 307.502 117.788 299.289 113.482C275.115 100.805 248.498 108.933 230.426 117.982C218.35 124.029 212.025 137.414 215.046 150.531C215.225 151.308 215.422 152.105 215.633 152.917C214.417 150.527 213.228 148.154 212.08 145.818ZM245.51 188.499C229.73 177.201 223.206 160.955 220.517 149.273C218.08 138.689 223.189 127.886 232.941 123.002C256.985 110.962 278.035 109.246 295.533 117.878C296.82 119.158 302.424 125.106 305.502 134.587C309.625 147.286 307.561 160.555 299.374 174.106C296.236 179.299 291.961 183.763 286.692 186.772C286.011 187.161 285.317 187.527 284.606 187.871C268.718 195.549 255.688 193.84 245.51 188.499ZM301.114 197.133C296.306 198.593 291.013 197.285 287.396 193.5L286.909 192.99C286.955 192.967 287.002 192.947 287.048 192.924C289.48 191.749 291.799 190.322 294.009 188.657L301.114 197.133Z" fill="#000000"/>
</svg>
